<?xml version="1.0" encoding="UTF-8"?>
<svg xmlns="http://www.w3.org/2000/svg" xmlns:xlink="http://www.w3.org/1999/xlink" viewBox="0 0 351.27 351.27">
  <defs>
    <style>
      .cls-1 {
        fill: #fff;
      }

      .cls-2 {
        fill: #274451;
      }

      .cls-3 {
        fill: url(#linear-gradient);
        stroke: #fff;
        stroke-miterlimit: 10;
      }

      .cls-4 {
        fill: #f0efef;
      }
    </style>
    <linearGradient id="linear-gradient" x1="175.63" y1="12.57" x2="175.63" y2="362.84" gradientUnits="userSpaceOnUse">
      <stop offset="0" stop-color="#92cff2"/>
      <stop offset=".23" stop-color="#8bc7ed"/>
      <stop offset=".58" stop-color="#79b2e0"/>
      <stop offset="1" stop-color="#5b90cc"/>
      <stop offset="1" stop-color="#5b90cc"/>
    </linearGradient>
  </defs>
  <g id="Layer_1">
    <rect class="cls-3" x=".5" y=".5" width="350.27" height="350.27" rx="88.24" ry="88.24"/>
  </g>
  <g id="Layer_2">
    <path class="cls-2" d="M56.95,202.15c33.14-21.13,62.01-47.98,85.76-79.27l-10.36-6.06c-24.14,43.97-48.28,87.94-72.42,131.9-2.76,5.02,2.98,11.62,8.21,8.21,60.19-39.24,113.62-88.38,157.67-145.15,3.8-4.9.3-10.9-5.84-10.03-13.92,1.98-24.74,11.67-33.01,22.44-9.06,11.8-16.27,25.21-22.33,38.76-6.38,14.27-11.48,29.09-14.98,44.33-3.42,14.86-6.75,31.31-5,46.58,1.6,13.92,8.77,27.75,22.68,32.65s29.8-1.42,42.08-8.52c24.32-14.06,43.45-35.84,57.73-59.78,18.79-31.5,29.42-67.03,39.87-101.95,2.22-7.41-9.36-10.58-11.57-3.19-15.46,51.64-32.3,107.28-75.42,143-15.73,13.03-51.64,34.98-61.8,4.48-4.41-13.26-1.24-29.05,1.37-42.41s6.57-27.14,11.64-40.13c5.47-14.01,12.43-27.56,20.68-40.14,7.45-11.36,17.09-22.54,31.26-24.56l-5.84-10.03c-43.42,55.96-95.9,104.58-155.24,143.27l8.21,8.21c24.14-43.97,48.28-87.94,72.42-131.9,3.82-6.96-5.81-12.06-10.36-6.06-22.45,29.58-50.16,55.01-81.46,74.96-6.49,4.14-.48,14.53,6.06,10.36h0Z"/>
    <path class="cls-1" d="M179.29,256.76c58.38-19.33,78-83.09,92.07-136.47,1.97-7.47-9.6-10.66-11.57-3.19-12.83,48.66-29.97,110.3-83.69,128.09-7.3,2.42-4.17,14.01,3.19,11.57h0Z"/>
    <path class="cls-1" d="M245.09,271.33h21.45c7.72,0,7.73-12,0-12h-21.45c-7.72,0-7.73,12,0,12h0Z"/>
    <path class="cls-1" d="M53.08,192.04c33.14-21.13,62.01-47.98,85.76-79.27l-10.36-6.06c-24.14,43.97-48.28,87.94-72.42,131.9-2.76,5.02,2.98,11.62,8.21,8.21,60.19-39.24,113.62-88.38,157.67-145.15,3.8-4.9.3-10.9-5.84-10.03-13.92,1.98-24.74,11.67-33.01,22.44-9.06,11.8-16.27,25.21-22.33,38.76-6.38,14.27-11.48,29.09-14.98,44.33s-6.75,31.31-5,46.58c1.6,13.92,8.77,27.75,22.68,32.65s29.8-1.42,42.08-8.52c24.32-14.06,43.45-35.84,57.73-59.78,18.79-31.5,29.42-67.03,39.87-101.95,2.22-7.41-9.36-10.58-11.57-3.19-15.46,51.64-32.3,107.28-75.42,143-15.73,13.03-51.64,34.98-61.8,4.48-4.41-13.26-1.24-29.05,1.37-42.41,2.67-13.69,6.57-27.14,11.64-40.13,5.47-14.01,12.43-27.56,20.68-40.14,7.45-11.36,17.09-22.54,31.26-24.56l-5.84-10.03c-43.42,55.96-95.9,104.58-155.24,143.27l8.21,8.21c24.14-43.97,48.28-87.94,72.42-131.9,3.82-6.96-5.81-12.06-10.36-6.06-22.45,29.58-50.16,55.01-81.46,74.96-6.49,4.14-.48,14.53,6.06,10.36h0Z"/>
    <path class="cls-4" d="M128.48,106.72c-24.14,43.97-48.28,87.94-72.42,131.9-2.76,5.02,2.98,11.62,8.21,8.21,60.19-39.24,113.62-88.38,157.67-145.15,4.68-6.03-3.75-14.58-8.49-8.49-43.42,55.96-95.9,104.58-155.24,143.27l8.21,8.21c24.14-43.97,48.28-87.94,72.42-131.9,3.72-6.77-6.64-12.84-10.36-6.06h0Z"/>
  </g>
</svg>